<svg width="542" height="559" viewBox="0 0 542 559" fill="none" xmlns="http://www.w3.org/2000/svg">
<g clip-path="url(#clip0)">
<path d="M545.105 503.085C545.105 518.12 426.721 530.309 280.687 530.309C134.652 530.309 16.2672 518.12 16.2672 503.085C16.2672 488.048 134.652 475.86 280.687 475.86C426.721 475.86 545.105 488.048 545.105 503.085Z" fill="#E7E8E5"/>
<path d="M401.94 472.893C401.94 485.107 392.793 494.986 381.513 494.986H179.86C168.553 494.986 159.407 485.107 159.407 472.893V40.8133C159.407 15.9333 168.553 14.72 179.86 14.72H220.26C222.607 14.72 224.527 17.3867 224.527 20.6933V22.12C224.527 29.8667 228.767 29.8933 233.967 29.8933H327.379C332.633 29.8933 336.847 29.8667 336.847 22.12V20.6933C336.847 17.3867 338.74 14.72 341.127 14.72H381.513C392.793 14.72 401.94 18.0267 401.94 40.8133V472.893ZM393.379 -3.05176e-05H167.967C155.38 -3.05176e-05 145.167 10.3866 145.167 23.2267V487.24C145.167 500.053 155.38 510.467 167.967 510.467H393.379C405.967 510.467 416.205 500.053 416.205 487.24V23.2267C416.205 10.3866 405.967 -3.05176e-05 393.379 -3.05176e-05Z" fill="#273E47"/>
<path d="M401.94 40.8134V472.893C401.94 485.107 392.793 494.986 381.513 494.986H179.86C168.553 494.986 159.407 485.107 159.407 472.893V40.8134C159.407 15.9334 168.553 14.7201 179.86 14.7201H220.26C222.607 14.7201 224.527 17.3867 224.527 20.6934V22.1201C224.527 29.8667 228.767 29.8934 233.967 29.8934H327.379C332.633 29.8934 336.847 29.8667 336.847 22.1201V20.6934C336.847 17.3867 338.74 14.7201 341.127 14.7201H381.513C392.793 14.7201 401.94 18.0268 401.94 40.8134Z" fill="#E7E8E5"/>
<path d="M293.42 20.2173H267.941C267.071 20.2173 266.367 19.5133 266.367 18.6439C266.367 17.7746 267.071 17.0706 267.941 17.0706H293.42C294.291 17.0706 294.995 17.7746 294.995 18.6439C294.995 19.5133 294.291 20.2173 293.42 20.2173Z" fill="white"/>
<path d="M401.099 90.0146C401.099 90.0146 400.9 90.0533 400.567 90.1466L400.66 89.9879H400.673C400.94 90.0146 401.099 90.0146 401.099 90.0146Z" fill="#17282F"/>
<path d="M416.193 141.268H416.205V131.88H416.193V141.268Z" fill="#F25553"/>
<path d="M416.205 131.88V143.773C416.193 143.628 416.193 143.467 416.193 143.307V131.88H416.205Z" fill="#F25553"/>
<path d="M416.447 475.213L416.205 475.24V475.067L416.447 475.213Z" fill="#F25553"/>
<path d="M471.511 486.591C468.573 485.305 404.043 426.904 402.988 423.121C402.583 421.69 410.539 411.796 420.493 400.112C422.643 397.59 447.744 357.407 447.744 357.407L492.96 393.253L462.207 437.645C462.207 437.645 476.913 471.055 477.623 475.327C478.319 479.588 474.447 487.877 471.511 486.591Z" fill="#BE8F78"/>
<path d="M472.339 461.309C475.072 467.896 477.347 473.701 477.619 475.323C478.319 479.596 474.449 487.879 471.519 486.59C468.577 485.308 404.037 426.9 402.993 423.128C402.655 421.965 407.823 415.233 415.117 406.492C428.156 421.641 469.269 468.784 472.284 464.4C472.569 463.995 472.548 462.86 472.339 461.309Z" fill="#17282F"/>
<path d="M424.801 392.569L470.541 430.304C470.541 430.304 534.157 341.731 535.985 309.367C537.383 284.467 500.439 238.084 475.343 198.368C472.911 194.519 474.392 179.903 474.485 177.467L424.764 177.556C424.163 183.16 420.275 211.339 428.647 225.052C445.876 253.271 473.685 294.209 474.752 303.087C475.809 311.896 424.801 392.569 424.801 392.569Z" fill="#273E47"/>
<path d="M473.491 416.438C466.184 410.25 468.364 411.929 460.991 405.819C457.383 402.828 439.284 387.756 435.455 385.527L435.337 385.669C438.3 388.967 456.72 403.644 460.381 406.567C467.864 412.543 465.777 410.749 473.324 416.644C473.465 416.755 473.628 416.555 473.491 416.438Z" fill="#17282F"/>
<path d="M479.153 294.804C477.487 291.541 475.697 288.34 473.839 285.184C470.08 278.804 466.031 272.601 462.029 266.373C457.855 259.873 453.675 253.376 449.495 246.877C445.74 241.039 441.925 235.219 438.66 229.085C435.441 223.039 432.767 216.645 431.44 209.9C429.984 202.501 430.28 194.908 430.923 187.44C431.084 185.577 431.263 183.716 431.437 181.856C431.468 181.537 430.909 181.472 430.873 181.793C430.053 189.101 429.28 196.489 429.813 203.849C430.307 210.653 432.167 217.215 434.908 223.444C437.633 229.636 441.097 235.465 444.699 241.18C448.672 247.484 452.717 253.741 456.735 260.017C460.8 266.371 464.913 272.695 468.905 279.095C470.845 282.204 472.748 285.337 474.564 288.521C476.363 291.668 478.199 294.86 479.637 298.191C480.356 299.855 480.925 301.608 481.036 303.428C481.151 305.313 480.697 307.145 480.024 308.892C478.7 312.319 476.9 315.601 475.273 318.889C472.021 325.464 468.717 332.013 465.304 338.505C458.452 351.537 439.952 382.199 438.995 383.78L439.177 383.88C447.037 371.337 456.58 356.717 463.645 343.711C467.177 337.209 470.613 330.657 473.955 324.057C475.625 320.757 477.255 317.436 478.864 314.105C480.332 311.068 482.013 307.931 482.117 304.481C482.221 301.037 480.684 297.797 479.153 294.804Z" fill="#17282F"/>
<path d="M472.753 177.467C469.553 193.893 460.3 241.147 455.233 267.28C446.539 253.387 436.485 237.908 428.645 225.053C420.273 211.333 424.167 183.16 424.765 177.56L472.753 177.467Z" fill="#17282F"/>
<path d="M482.431 519.477C479.376 520.45 392.353 519.222 389.063 517.08C387.811 516.272 387.252 503.588 387.009 488.241C386.956 484.928 387.739 434.42 387.739 434.42L445.955 435.072L443.119 488.871C443.119 488.871 476.227 504.244 479.583 506.983C482.92 509.721 485.485 518.503 482.431 519.477Z" fill="#BE8F78"/>
<path d="M466.356 499.947C472.757 503.09 478.301 505.944 479.576 506.983C482.923 509.728 485.489 518.504 482.436 519.469C479.383 520.451 392.347 519.224 389.071 517.081C388.048 516.433 387.481 507.962 387.187 496.583C406.981 499.345 468.988 507.588 468.356 502.304C468.303 501.814 467.537 500.974 466.356 499.947Z" fill="#17282F"/>
<path d="M474.485 177.556C474.485 177.556 464.637 225.505 464.117 227.088C464.117 227.088 458.703 229.213 450.111 234.044L446.587 477.979L383.813 478.39C383.813 478.39 391.607 349.008 391.385 340.731C391.036 327.429 396.803 237.209 396 234.947C387.803 211.807 400.675 177.556 400.675 177.556H474.485Z" fill="#273E47"/>
<path d="M444.228 466.405C426.531 465.644 392.277 465.964 387.899 466.71V466.905C392.287 467.611 433.903 467.692 444.229 466.684C444.408 466.667 444.408 466.412 444.228 466.405Z" fill="#17282F"/>
<path d="M398 404.296C398.993 385.945 400.073 367.599 401.123 349.251C402.172 330.901 403.223 312.553 404.267 294.205C404.788 285.031 405.289 275.853 405.849 266.681C406.129 262.095 406.409 257.508 406.688 252.921C406.963 248.417 407.509 243.801 407.273 239.289C407.015 234.332 404.847 229.956 403.608 225.225C402.432 220.733 401.967 216.087 401.949 211.452C401.915 201.876 403.891 192.419 405.716 183.064C405.817 182.547 406.623 182.769 406.509 183.289C404.629 191.887 402.924 200.571 402.723 209.403C402.623 213.796 402.935 218.204 403.861 222.507C404.751 226.643 406.545 230.464 407.595 234.545C408.681 238.764 408.191 243.129 407.929 247.423C407.651 252.008 407.424 256.599 407.177 261.185C406.692 270.176 406.159 279.167 405.644 288.157C403.552 324.671 401.524 361.192 399.303 397.697C398.052 418.244 397.047 438.826 395.404 459.345C395.392 459.497 395.159 459.5 395.164 459.344C395.807 440.986 397.005 422.638 398 404.296Z" fill="#17282F"/>
<path d="M407.457 206.309C408.507 205.879 409.685 205.753 410.771 205.419C411.913 205.068 413.035 204.671 414.121 204.168C416.167 203.221 418.161 202.023 419.885 200.565C421.665 199.061 422.711 197.136 423.567 195.003C424.024 193.865 424.448 192.716 424.895 191.575C425.117 191.009 425.339 190.441 425.56 189.875C425.647 189.653 426.229 188.453 426.329 188.076L426.175 188.092L426.112 188.037L426.095 187.9C426.16 187.757 426.175 187.744 426.325 187.713L426.483 187.777C426.708 188.151 426.505 188.512 426.409 188.913C426.229 189.664 426.055 190.416 425.869 191.164C425.545 192.472 425.229 193.783 424.855 195.076C424.147 197.512 423.085 199.753 421.175 201.472C419.308 203.151 417.084 204.411 414.747 205.309C413.543 205.771 412.299 206.153 411.031 206.395C409.887 206.612 408.615 206.887 407.455 206.671C407.251 206.633 407.309 206.371 407.457 206.309Z" fill="#17282F"/>
<path d="M458.167 219.471C458.277 217.272 458.405 215.075 458.561 212.88C458.916 207.873 459.351 202.847 460.143 197.888C460.203 197.5 460.751 197.637 460.724 198.007C460.453 201.897 460.077 205.781 459.78 209.671C459.485 213.521 459.084 217.429 459.083 221.293C459.081 222.459 459.195 224.433 460.628 224.729C462.557 225.128 463.421 222.589 463.86 221.203C464.952 217.741 465.592 214.171 466.087 210.581C466.648 206.497 466.912 202.361 467.233 198.253C467.245 198.105 467.491 198.124 467.493 198.269C467.661 206.416 467.689 214.933 464.779 222.675C464.212 224.184 463.197 225.723 461.464 225.955L461.383 225.959L461.408 226.1C461.377 226.331 461.319 226.555 461.283 226.783C461.257 226.975 461.221 227.165 461.179 227.355C461.105 227.751 461.053 228.152 460.961 228.547C460.875 228.908 460.388 228.82 460.368 228.489C460.277 228.448 460.199 228.38 460.196 228.252C460.173 227.463 460.42 226.676 460.685 225.937C459.735 225.787 458.969 225.124 458.551 224.204C457.885 222.739 458.089 221.024 458.167 219.471Z" fill="#17282F"/>
<path d="M464.165 226.628C457.96 229.216 452.033 232.708 446.387 236.332C446.165 236.475 446.34 236.821 446.583 236.699C452.585 233.653 458.717 230.715 464.544 227.343C465.003 227.079 464.641 226.429 464.165 226.628Z" fill="#17282F"/>
<path d="M448.341 354.641C448.351 354.053 448.529 353.824 448.553 354.544C448.695 358.593 448.648 364.407 448.68 368.455C448.733 373.221 448.681 377.988 448.629 382.753C448.545 387.519 448.46 392.284 448.269 397.047L447.98 404.193C447.88 405.839 447.92 409.09 447.82 410.736C447.776 411.471 447.593 411.605 447.528 410.861C447.412 408.476 447.403 406.568 447.327 404.184L447.244 397.033C447.192 392.267 447.244 387.5 447.297 382.733C447.383 377.969 447.469 373.204 447.659 368.439C447.835 363.676 447.997 359.403 448.341 354.641Z" fill="#17282F"/>
<path d="M479.661 109.852C479.691 110.208 479.481 110.581 479.139 110.64C478.345 110.72 477.393 110.804 476.324 110.901C473.508 103.919 470.552 98.3866 471.356 100.553C472.52 103.691 473.469 108.223 473.557 111.145C472.316 111.249 469.439 111.463 467.997 111.568C465.296 99.22 462.104 90.0906 462.396 92.924C463.572 104.351 463.089 108.044 462.508 111.991C449.087 112.969 431.476 114.047 418.723 114.533C416.968 107.713 415.373 100.325 415.171 100.848C413.589 104.764 413.348 110.392 413.487 114.72C409.425 114.844 406.176 114.863 404.192 114.769C404.192 114.769 403.005 109.028 402.791 107.136C402.221 102.317 402.52 97.3573 403.623 92.664C404.776 87.828 406.936 83.532 408.972 79.1306L409.024 79.0346L409.039 78.9973C410.429 75.9546 411.433 73.0466 412.067 69.9786L412.085 69.9093C412.521 67.7306 412.775 65.4853 412.855 63.0186C413.099 54.54 417.255 47.1146 424.6 44.7053C438.067 30.2293 452.383 35.8493 457.077 46.6026C457.531 47.6506 457.977 48.8546 458.419 50.168L458.429 50.2093C460.071 55.0666 461.62 61.384 463.012 66.264L463.02 66.2906L463.036 66.3453L463.04 66.3586C463.721 68.6813 464.349 70.6573 464.941 71.988C468.852 80.7346 477.168 85.56 479.661 109.852Z" fill="#17282F"/>
<path d="M421.456 47.1133C416.687 49.9493 413.857 53.996 413.355 60.192C413.061 63.804 412.981 67.324 411.829 70.752C410.64 74.292 408.645 77.2187 406.592 80.144C403.329 84.792 401.111 89.396 400.824 95.472C400.533 101.643 401.108 108.903 403.287 114.601L403.333 114.583C401.52 108.796 401.145 100.732 401.865 94.6067C402.656 87.8787 406.031 83.5773 409.451 78.396C412.168 74.28 413.821 69.7627 414.224 64.5907C414.463 61.528 414.289 58.352 415.319 55.448C416.549 51.9813 419.195 49.732 421.827 47.7307C422.185 47.4573 421.817 46.8987 421.456 47.1133Z" fill="#17282F"/>
<path d="M473.509 81.2613C469.868 76.5453 466.115 72.54 463.853 66.6333C461.792 61.2506 460.505 55.5426 458.412 50.168L458.289 50.212C461.568 59.7667 462.525 69.464 468.668 77.4187C472.005 81.74 475.328 85.74 477.627 90.964C480.041 96.4533 481.22 102.2 481.612 108.289C481.627 108.501 481.88 108.484 481.889 108.279C482.351 98.3973 479.227 88.668 473.509 81.2613Z" fill="#17282F"/>
<path d="M505.927 55.0867L497.293 94.6054C496.912 95.7694 497.519 96.6854 498.648 96.6494L518.879 96.008C520.009 95.972 521.237 94.9973 521.619 93.8333L530.253 54.316C530.637 53.1494 530.029 52.236 528.899 52.2707L508.668 52.9134C507.537 52.9494 506.309 53.9214 505.927 55.0867Z" fill="#273E47"/>
<path d="M508.328 54.9906L499.695 94.5079C499.311 95.6706 499.92 96.588 501.049 96.552L521.28 95.9106C522.409 95.8746 523.639 94.8999 524.02 93.7373L532.653 54.2173C533.036 53.052 532.428 52.1373 531.3 52.1733L511.069 52.816C509.939 52.852 508.711 53.824 508.328 54.9906Z" fill="#33535F"/>
<path d="M513.931 56.6053C513.94 57.5547 513.179 58.332 512.229 58.3413C511.279 58.3507 510.501 57.588 510.492 56.6387C510.483 55.688 511.247 54.912 512.196 54.9027C513.144 54.8933 513.921 55.6547 513.931 56.6053Z" fill="#17282F"/>
<path d="M442.6 116.521C454.609 140.645 481.045 171.727 491.685 171.623C492.349 171.616 493.081 171.627 493.868 171.639C499.081 171.716 506.665 171.792 512.32 166.608C526.523 153.587 538.08 129.04 540.233 115.088C540.999 110.127 516.712 99.9707 513.253 104.076C505.156 113.689 495.915 132.403 494.441 132.324C488.987 132.035 467.291 114.795 452.144 102.649C433.756 87.9053 437.813 106.908 442.6 116.521Z" fill="#BE8F78"/>
<path d="M540.244 89.5373C537.471 79.5627 535.227 77.428 537.357 67.7666C538.753 61.4253 535.307 57.8133 530.952 62.9733C523.832 71.416 524.707 85.036 526.371 89.6707L540.244 89.5373Z" fill="#BE8F78"/>
<path d="M539.157 119.42C539.157 119.42 543.316 105.336 541.413 94.4147C540.095 86.8614 535.399 70.748 513.984 62.6774C508.905 60.764 500.311 61.6387 507.471 67.7774C512.557 72.1387 517.1 73.3667 519.596 76.4427C519.596 76.4427 508.796 78.852 507.077 84.0147C506.309 86.3227 504.36 92.6694 503.545 97.828C503.545 97.828 504.621 98.3067 506.072 98.72C506.072 98.72 504.92 103.695 508.673 110.491L539.157 119.42Z" fill="#BE8F78"/>
<path d="M539.004 87.4066C535.881 84.8773 529.172 79.6293 522.191 77.2453C514.436 74.5973 498.784 71.5866 496.888 77.332C495.497 81.544 501.372 83.2187 501.372 83.2187C501.372 83.2187 494.641 83.3373 494.217 87.4173C493.832 91.136 498.455 92.1587 498.455 92.1587C498.455 92.1587 494.383 92.9333 494.701 96.5853C495.085 100.979 503.553 98.636 507.787 102.749C508.736 103.675 539.004 87.4066 539.004 87.4066Z" fill="#BE8F78"/>
<path d="M520.759 85.9066C517.432 84.0093 508.771 81.6413 501.499 83.104C501.333 83.1373 501.271 83.2786 501.427 83.2813C509.776 83.3706 517.5 85.064 520.735 85.9786L520.759 85.9066Z" fill="#17282F"/>
<path d="M517.859 93.6573C514.82 92.316 505.784 90.2733 498.465 92.0079C498.303 92.0466 498.248 92.1933 498.405 92.1893C507.132 91.9253 514.555 93.0106 517.839 93.7306L517.859 93.6573Z" fill="#17282F"/>
<path d="M453.644 138.403L473.616 117.452C473.616 117.452 458.684 103.819 447.72 98.4934C436.755 93.1694 434.968 100.296 439.515 111.264C444.061 122.232 453.644 138.403 453.644 138.403Z" fill="#FABB1E"/>
<path d="M467.124 124.263C466.973 124.045 466.823 123.831 466.671 123.613H466.673C466.521 123.399 466.371 123.183 466.213 122.968C465.372 121.784 464.5 120.589 463.616 119.4H463.62C463.42 119.133 463.22 118.867 463.02 118.601C455.611 108.731 447.419 99.392 446.305 98.4014C445.901 98.0427 445.488 97.7027 445.067 97.3814C445.883 97.6614 446.767 98.0307 447.72 98.4934C458.684 103.819 473.616 117.452 473.616 117.452L467.124 124.263Z" fill="#3AA67F"/>
<path d="M472.127 159.283L481.529 203.377C481.529 203.377 409.045 209.217 390.952 209.132C390.952 209.132 400.171 124.94 418.153 102.64C427.148 91.4867 438.573 91.524 446.305 98.4014C448.26 100.141 472.045 127.624 475.077 138.52C477.729 148.137 472.127 159.283 472.127 159.283Z" fill="#E7E8E5"/>
<path d="M438.3 94.12H430.607C433.22 93.4933 435.819 93.5213 438.3 94.12Z" fill="#3AA67F"/>
<path d="M446.22 98.3334H422.379C422.712 98.0534 423.06 97.7867 423.407 97.5481H445.273C445.592 97.8001 445.913 98.0534 446.22 98.3334Z" fill="#3AA67F"/>
<path d="M450.06 102.548H418.233C418.447 102.28 418.673 102.015 418.887 101.761H449.365C449.58 102.015 449.807 102.267 450.06 102.548Z" fill="#3AA67F"/>
<path d="M453.62 106.761H415.34C415.485 106.493 415.645 106.227 415.819 105.973H452.967C453.18 106.227 453.407 106.493 453.62 106.761Z" fill="#3AA67F"/>
<path d="M457.073 110.973H413.06C413.18 110.708 413.312 110.44 413.447 110.188H456.432C456.645 110.44 456.86 110.708 457.073 110.973Z" fill="#3AA67F"/>
<path d="M460.407 115.187H411.14C411.259 114.92 411.365 114.655 411.473 114.4H459.793C460.007 114.667 460.205 114.92 460.407 115.187Z" fill="#3AA67F"/>
<path d="M463.62 119.4H409.473C409.567 119.133 409.673 118.867 409.765 118.601H463.02C463.22 118.867 463.42 119.133 463.62 119.4Z" fill="#3AA67F"/>
<path d="M466.673 123.613H407.967C408.06 123.333 408.14 123.08 408.233 122.813H466.099C466.3 123.08 466.485 123.348 466.673 123.613Z" fill="#3AA67F"/>
<path d="M469.539 127.827H406.58C406.673 127.56 406.753 127.295 406.847 127.027H469.007C469.18 127.295 469.365 127.56 469.539 127.827Z" fill="#3AA67F"/>
<path d="M472.113 132.041H405.327C405.393 131.761 405.473 131.507 405.553 131.241H471.645C471.819 131.507 471.967 131.773 472.113 132.041Z" fill="#3AA67F"/>
<path d="M474.259 136.253H404.139C404.205 135.988 404.287 135.72 404.353 135.453H473.9C474.033 135.72 474.152 135.988 474.259 136.253Z" fill="#3AA67F"/>
<path d="M475.5 140.453H403.032C403.099 140.187 403.167 139.935 403.233 139.667H475.34C475.407 139.935 475.46 140.187 475.5 140.453Z" fill="#3AA67F"/>
<path d="M475.793 143.88C475.793 144.147 475.78 144.413 475.78 144.667H401.993C402.06 144.4 402.127 144.133 402.18 143.88H475.793Z" fill="#3AA67F"/>
<path d="M475.513 148.095C475.473 148.36 475.432 148.628 475.379 148.88H401.02C401.073 148.628 401.127 148.36 401.193 148.095H475.513Z" fill="#3AA67F"/>
<path d="M474.645 152.307C474.58 152.575 474.513 152.84 474.432 153.095H400.073C400.127 152.827 400.193 152.575 400.247 152.307H474.645Z" fill="#3AA67F"/>
<path d="M473.3 156.52C473.193 156.8 473.087 157.067 472.993 157.307H399.193C399.233 157.041 399.287 156.787 399.353 156.52H473.3Z" fill="#3AA67F"/>
<path d="M472.607 161.52H398.34C398.379 161.253 398.432 161 398.5 160.733H472.432L472.607 161.52Z" fill="#3AA67F"/>
<path d="M473.5 165.733H397.527C397.58 165.467 397.62 165.213 397.673 164.947H473.34L473.5 165.733Z" fill="#3AA67F"/>
<path d="M474.407 169.947H396.753C396.793 169.681 396.847 169.413 396.887 169.147H474.233L474.407 169.947Z" fill="#3AA67F"/>
<path d="M475.3 174.16H396.007C396.06 173.893 396.099 173.628 396.14 173.36H475.127L475.3 174.16Z" fill="#3AA67F"/>
<path d="M476.193 178.375H395.3C395.34 178.107 395.379 177.84 395.432 177.575H476.02L476.193 178.375Z" fill="#3AA67F"/>
<path d="M477.099 182.587H394.62C394.66 182.321 394.699 182.053 394.74 181.787H476.925L477.099 182.587Z" fill="#3AA67F"/>
<path d="M477.993 186.8H393.953C393.993 186.533 394.045 186.268 394.087 186H477.819L477.993 186.8Z" fill="#3AA67F"/>
<path d="M478.887 191H393.327C393.365 190.747 393.407 190.48 393.447 190.213H478.727L478.887 191Z" fill="#3AA67F"/>
<path d="M479.793 195.213H392.727C392.765 194.961 392.807 194.693 392.847 194.428H479.62L479.793 195.213Z" fill="#3AA67F"/>
<path d="M480.687 199.428H392.152C392.193 199.173 392.233 198.908 392.259 198.64H480.513L480.687 199.428Z" fill="#3AA67F"/>
<path d="M481.527 203.375C481.527 203.375 480.34 203.467 478.22 203.64H391.62C391.645 203.387 391.673 203.133 391.712 202.853H481.42L481.527 203.375Z" fill="#3AA67F"/>
<path d="M431.74 207.067C427.633 207.348 423.553 207.613 419.62 207.853H391.099C391.127 207.628 391.152 207.36 391.193 207.067H431.74Z" fill="#3AA67F"/>
<path d="M474.669 151.76C475.205 149.127 475.481 146.507 475.229 143.82C474.719 138.396 472.549 133.281 469.809 128.627C468.248 125.973 466.377 123.505 464.827 120.852L464.939 120.775C466.375 122.473 467.677 124.339 468.915 126.213L468.825 126.02C468.395 124.989 467.953 123.963 467.476 122.951L467.66 122.857C468.188 123.836 468.703 124.824 469.173 125.833C469.475 126.479 469.721 127.135 469.949 127.8C471.449 130.125 472.831 132.537 473.932 135.077C476.133 140.156 477.112 145.652 475.809 151.075C475.025 154.344 473.224 157.752 472.171 159.304C472.095 159.416 471.931 159.336 471.983 159.212C473.005 156.789 474.145 154.332 474.669 151.76Z" fill="#17282F"/>
<path d="M429.416 99.2733C429.965 100.635 438.129 108.756 444.537 107.451C446.624 107.021 444.793 95.5307 444.793 95.5307L444.853 94.6507L445.667 82.3427L430.303 75.5453L428.099 74.672C428.099 74.672 428.097 78.0547 428.14 82.2667C428.14 82.4613 428.14 82.6573 428.144 82.8653C428.14 83.104 428.135 83.328 428.14 83.5507C428.14 84.18 428.14 84.8227 428.153 85.4627C428.163 85.9493 428.169 86.424 428.197 86.9347C428.211 87.448 428.237 87.9467 428.252 88.46C428.507 93.5187 429.192 98.6933 429.416 99.2733Z" fill="#BE8F78"/>
<path d="M428.14 82.2666C433.017 91.204 441.179 93.8893 444.853 94.6506L445.667 82.3426L430.303 75.5453L428.099 74.672C428.099 74.672 428.097 78.0546 428.14 82.2666Z" fill="#17282F"/>
<path d="M460.835 63.8653C463.087 85.3973 450.445 89.1787 445.803 89.6587C441.587 90.0947 427.18 91.0453 422.712 69.8626C418.248 48.68 427.545 40.8253 437.133 39.3173C446.721 37.8093 458.581 42.3346 460.835 63.8653Z" fill="#BE8F78"/>
<path d="M456.052 59.2334C455.541 59.2267 455.071 59.136 454.565 59.0787C453.995 59.0147 453.535 59.0214 453.079 58.6334C452.833 58.4254 452.803 57.9547 452.981 57.6974C453.4 57.1 454.117 57.0067 454.807 57.0574C455.555 57.1121 456.117 57.3454 456.661 57.8587C457.189 58.3574 456.727 59.24 456.052 59.2334Z" fill="#17282F"/>
<path d="M441.876 60.8734C442.375 60.7614 442.817 60.5747 443.299 60.4134C443.843 60.2307 444.295 60.1414 444.66 59.6667C444.857 59.4134 444.789 58.9454 444.56 58.732C444.028 58.2347 443.305 58.2921 442.643 58.4854C441.92 58.6947 441.42 59.0414 440.995 59.6574C440.583 60.2547 441.217 61.0214 441.876 60.8734Z" fill="#17282F"/>
<path d="M445.673 66.0026L445.577 66.1466C445.811 67.6026 445.836 69.3093 444.576 69.9653L444.599 70.0453C446.184 69.6106 446.129 67.3453 445.673 66.0026Z" fill="#17282F"/>
<path d="M444.171 64.6453C441.796 64.7693 442.22 69.5093 444.42 69.3933C446.585 69.28 446.16 64.54 444.171 64.6453Z" fill="#17282F"/>
<path d="M443.261 64.9786C442.872 65.284 442.509 65.7933 442.015 65.888C441.441 65.996 440.961 65.54 440.541 65.096L440.465 65.1573C440.532 66.068 440.967 66.9666 441.952 67.0146C442.851 67.06 443.417 66.1986 443.561 65.264C443.588 65.092 443.42 64.856 443.261 64.9786Z" fill="#17282F"/>
<path d="M453.78 64.8973L453.903 65.0186C453.976 66.4906 454.309 68.1653 455.677 68.5453L455.672 68.6279C454.031 68.5319 453.613 66.3053 453.78 64.8973Z" fill="#17282F"/>
<path d="M454.967 63.256C457.313 62.884 457.887 67.608 455.711 67.9533C453.571 68.292 452.997 63.5693 454.967 63.256Z" fill="#17282F"/>
<path d="M455.988 63.448C456.392 63.652 456.816 64.0626 457.265 64.0373C457.787 64.0093 458.107 63.452 458.377 62.9226L458.457 62.9653C458.591 63.8653 458.408 64.8413 457.561 65.12C456.789 65.3733 456.113 64.6693 455.789 63.7959C455.729 63.6346 455.825 63.3653 455.988 63.448Z" fill="#17282F"/>
<path d="M446.861 77.728C447.229 78.0573 447.601 78.516 448.139 78.5374C448.652 78.5587 449.244 78.3014 449.704 78.0974L449.772 78.1707C449.415 78.7534 448.625 79.1414 447.937 79.052C447.265 78.9654 446.911 78.404 446.723 77.8014L446.861 77.728Z" fill="#17282F"/>
<path d="M452.455 71.8054C452.455 71.8054 452.979 73.9654 453.085 74.9987C453.093 75.0947 452.849 75.1667 452.5 75.2227L452.46 75.228C450.664 75.6974 448.763 75.2534 447.504 73.876L447.643 73.7187C449.105 74.5814 450.639 74.6854 452.257 74.548C452.303 74.2547 451.236 70.88 451.399 70.8507C451.959 70.7454 453.109 71.016 453.799 71.144C452.836 66.6147 451.155 62.2747 450.263 57.7494C450.235 57.588 450.464 57.5147 450.527 57.6561C452.611 62.0787 453.832 67.268 454.947 71.92C455.091 72.4987 452.885 71.9387 452.455 71.8054Z" fill="#17282F"/>
<path d="M452.243 74.9747C452.243 74.9747 451.445 76.4267 450.173 77.0867C449.704 77.3307 449.183 77.4734 448.607 77.4014C447.421 77.2587 447.251 76.212 447.336 75.2867C447.405 74.5254 447.66 73.8427 447.66 73.8427C447.66 73.8427 449.543 75.176 452.243 74.9747Z" fill="#17282F"/>
<path d="M450.173 77.0867C449.704 77.3307 449.183 77.4734 448.607 77.4014C447.421 77.2587 447.251 76.212 447.336 75.2867C448.58 75.2454 449.907 75.9094 450.173 77.0867Z" fill="#F578BA"/>
<path d="M424.357 68.9453C428.295 69.6053 429.676 60.5813 429.676 60.5813C429.676 60.5813 446.653 58.4027 448.637 44.7307C448.637 44.7307 451.173 53.5973 459.845 57.916C459.845 57.916 459.864 42.84 448.048 39.4333C448.048 39.4333 433.457 33.4467 424.657 44.8613C415.859 56.276 421.715 68.5027 424.357 68.9453Z" fill="#17282F"/>
<path d="M448.737 43.7173C448.877 45.8213 448.484 47.9586 447.732 49.9546C446.977 51.9506 445.836 53.8333 444.325 55.3706C443.979 55.784 443.532 56.0973 443.141 56.464L442.533 56.9933C442.317 57.152 442.093 57.3013 441.871 57.4493C441.42 57.7413 440.983 58.052 440.525 58.3253C440.048 58.5693 439.567 58.8013 439.085 59.028C438.844 59.14 438.607 59.2626 438.363 59.3653L437.607 59.6226L436.101 60.132C435.072 60.3733 434.031 60.564 433 60.736C433.984 60.352 434.989 60.076 435.953 59.688L437.376 59.064L438.087 58.756C438.313 58.636 438.532 58.4986 438.756 58.3706C439.199 58.1093 439.643 57.8533 440.093 57.608C440.521 57.328 440.924 57.012 441.341 56.716L441.963 56.2706L442.529 55.7587C442.895 55.4053 443.313 55.1053 443.636 54.7093C445.084 53.272 446.175 51.5186 447.056 49.6733C447.492 48.7453 447.84 47.772 448.119 46.776C448.417 45.7826 448.612 44.76 448.737 43.7173Z" fill="#17282F"/>
<path d="M426.796 70.8253C426.796 70.8253 421.952 64.152 418.916 65.892C415.88 67.6307 419.605 77.3613 423.228 78.6373C426.852 79.9146 428.099 76.5826 428.099 76.5826L426.796 70.8253Z" fill="#BE8F78"/>
<path d="M420.053 68.6547L420.035 68.752C422.577 69.7293 423.947 72.0453 424.92 74.456C424.153 73.5347 423.123 73.0414 421.888 73.9574L421.959 74.0907C422.988 73.8507 423.737 74.016 424.451 74.832C424.955 75.4093 425.307 76.1453 425.672 76.816C425.795 77.0387 426.199 76.9107 426.109 76.652L426.087 76.5947C426.093 73.376 423.513 68.9173 420.053 68.6547Z" fill="#17282F"/>
<path d="M426.364 44.6254C428.3 43.904 430.139 33.0907 423.029 27.9387C416.027 22.8667 406.813 28.6733 410.633 37.5333C413.047 43.1333 422.268 46.152 426.364 44.6254Z" fill="#17282F"/>
<path d="M413.091 27.3C410.921 29.076 409.527 31.5921 408.992 34.1574C408.452 36.7467 409.229 39.3934 411.148 41.1241C413.012 42.9467 415.589 43.9694 418.212 44.5787C419.536 44.8641 420.899 45.0361 422.269 45.0761C423.643 45.1387 425.032 45.0721 426.364 44.6254C425.163 45.4001 423.701 45.6414 422.299 45.832C420.876 45.972 419.433 45.9614 418.004 45.764C415.171 45.3614 412.275 44.3307 410.085 42.2374C409.008 41.188 408.127 39.8521 407.743 38.3587C407.363 36.8694 407.415 35.3041 407.825 33.8814C408.629 31.0387 410.576 28.5854 413.091 27.3Z" fill="#17282F"/>
<path d="M416.816 104.347C398.983 131.189 388.905 166.916 390.217 174.785C391.663 183.444 403.873 212.699 416.463 225.584C419.785 228.985 444.925 201.095 441.527 197.315C434.98 190.04 421.984 168.581 421.408 163.692C420.873 159.169 427.457 130.092 429.191 113.563C430.856 97.6839 425.112 91.86 416.816 104.347Z" fill="#BE8F78"/>
<path d="M440.723 196.423C440.723 196.423 454.381 202.428 463.129 206.776C468.009 209.201 476.004 214.105 478.775 217.528C482.919 222.645 496.977 246.697 491.22 250.232C486.008 253.432 476.552 231.235 476.552 231.235C476.552 231.235 488.073 252.789 481.088 255.489C474.104 258.187 466.756 231.687 466.756 231.687C466.756 231.687 478.097 254.1 470.455 255.743C464.68 256.985 456.671 233.357 456.671 233.357C456.671 233.357 466.287 252.689 460.401 254.223C453.899 255.917 445.139 234.572 445.139 234.572C429.524 235.951 421.525 230.22 416.32 225.465C415.06 224.316 440.723 196.423 440.723 196.423Z" fill="#BE8F78"/>
<path d="M473.044 223.524C474.489 226.007 475.969 228.511 477.189 231.113C478.408 233.716 479.537 236.364 480.509 239.069C482.892 245.703 483.347 250.229 483.288 249.953C481.904 243.412 477.683 234.027 476.463 231.423C475.247 228.825 474.159 226.167 472.944 223.567L473.044 223.524Z" fill="#17282F"/>
<path d="M463.565 227.756C465.273 231.007 467.088 234.171 468.653 237.497C470.209 240.808 471.399 244.085 472.723 247.495C472.825 247.757 472.651 247.725 472.537 247.465C471.077 244.112 469.469 241.125 467.969 237.789C466.476 234.465 465.099 231.057 463.485 227.791L463.565 227.756Z" fill="#17282F"/>
<path d="M454.777 229.925C457.643 234.76 459.611 240.116 461.417 245.416C461.507 245.68 461.285 245.615 461.179 245.351C459.068 240.159 457.449 236.072 454.608 230.024L454.777 229.925Z" fill="#17282F"/>
<path d="M399.676 131.88L428.099 137.356C428.099 137.356 431.496 117.425 430.048 105.321C428.601 93.2186 421.64 95.568 414.869 105.321C408.1 115.076 399.676 131.88 399.676 131.88Z" fill="#FABB1E"/>
<path d="M428.099 137.356L425.58 136.871L401.908 132.311L399.676 131.88C399.676 131.88 408.1 115.076 414.869 105.321C418.435 100.184 422.053 97.1026 424.892 97.1026C427.443 97.1026 429.364 99.5933 430.048 105.321C430.303 107.449 430.408 109.819 430.408 112.279C430.408 112.98 430.399 113.688 430.383 114.4C430.377 114.663 430.371 114.924 430.363 115.187C430.328 116.323 430.276 117.465 430.211 118.601C430.195 118.868 430.179 119.133 430.161 119.4C430.088 120.553 430.001 121.697 429.907 122.813C429.883 123.083 429.86 123.348 429.836 123.613C429.729 124.791 429.613 125.936 429.495 127.027C429.465 127.297 429.436 127.564 429.407 127.827C429.268 129.048 429.128 130.195 428.992 131.241C428.956 131.515 428.921 131.781 428.887 132.041C428.704 133.407 428.535 134.568 428.4 135.453C428.355 135.752 428.313 136.02 428.277 136.253C428.167 136.963 428.099 137.356 428.099 137.356Z" fill="#3AA67F"/>
<path d="M109.482 375.379C107.936 381.952 106.304 388.42 105.985 395.165C106.164 395.496 106.129 396.72 105.931 396.387C105.892 397.474 104.238 397.276 104.236 396.205C104.253 395.505 104.27 394.805 104.305 394.127C100.438 389.327 94.8246 386.285 90.2865 382.113C86.6178 378.737 83.9927 374.713 82.6036 369.888C78.8402 356.916 82.3678 343.171 77.8407 330.232C73.9397 319.077 66.9391 309.379 61.0151 299.271C54.7637 288.583 50.1501 277.349 49.6881 264.831C49.3198 255.244 50.4637 242.469 57.7646 235.289C65.5031 227.668 75.0964 233.379 81.0266 240.175C98.2079 259.893 106.158 284.813 109.372 310.292C111.143 324.395 112.984 338.583 112.559 352.817C112.318 360.468 111.219 367.947 109.482 375.379Z" fill="#3AA67F"/>
<path d="M106.06 400.344C106.948 387.016 106.893 373.667 105.588 360.393L105.654 360.248C105.871 349.448 106.729 338.693 106.305 327.88C105.845 316.135 104.123 304.623 101.549 293.163C101.52 293.032 101.315 293.063 101.34 293.197C103.458 304.375 104.689 315.78 105.098 327.149C105.317 333.249 105.273 339.356 104.952 345.452C104.846 347.435 104.663 349.435 104.531 351.435L104.529 351.416C100.174 321.025 88.9563 292.193 72.399 266.391C72.174 266.041 71.5516 266.416 71.7714 266.776C83.6948 286.244 92.4864 307.629 97.9235 329.819C89.661 314.511 77.1818 301.923 67.9235 287.213L67.7828 287.3C76.0995 303.675 89.8407 316.589 98.5995 332.721C100.12 339.297 101.364 345.935 102.289 352.613C103.562 361.783 104.158 371.008 104.282 380.247C99.25 370.839 94.026 361.841 89.9084 351.892C89.799 351.627 89.4188 351.809 89.5079 352.072C93.0104 362.407 97.7188 373.54 104.309 382.353C104.345 388.893 104.151 395.437 103.766 401.971C102.739 419.413 99.7599 436.621 98.3823 454.007C98.3412 454.531 99.0771 454.592 99.1798 454.093C102.802 436.545 104.868 418.212 106.06 400.344Z" fill="#17282F"/>
<path d="M87.5386 265.833C87.485 265.707 87.299 265.793 87.3449 265.92C90.5303 274.729 92.3303 283.656 94.6323 292.685C94.737 293.099 95.3334 293.009 95.2891 292.579C94.3531 283.417 91.0829 274.277 87.5386 265.833Z" fill="#17282F"/>
<path d="M168.436 302.756C166.371 307.929 163.808 312.939 161.109 317.808C155.372 328.225 149.389 337.769 148.305 349.901C147.821 355.317 147.649 360.76 145.999 365.977C144.573 370.493 142.257 374.663 139.592 378.561C133.374 387.619 125.602 395.424 119.841 404.823C113.846 414.59 109.425 425.336 106.718 436.465C106.575 437.074 105.615 436.91 105.757 436.303L105.794 436.164L105.736 436.036C104.825 410.027 106.9 383.812 114.833 358.895C118.304 348 122.582 337.163 127.437 326.808C131.687 317.771 136.984 309.087 144.445 302.336C149.285 297.976 159.785 289.712 166.677 294.085C169.985 296.188 169.739 299.508 168.436 302.756Z" fill="#3AA67F"/>
<path d="M142.295 361.719C137.835 369.345 132.546 376.443 127.18 383.447C124.662 386.735 122.108 389.996 119.595 393.288C118.406 394.843 117.075 396.392 115.984 398.061C116.672 395.327 117.341 392.588 118.039 389.856C121.394 376.713 124.621 363.457 129.62 350.821C134.506 338.471 141.004 326.872 147.679 315.419C147.855 315.116 147.368 314.899 147.192 315.191C141.695 324.228 136.117 333.256 131.497 342.784C128.915 348.107 126.744 353.584 124.836 359.156C127.083 347.211 129.775 335.739 133.703 324.173L133.547 324.101C128.754 335.443 125.304 348.197 124.344 360.489L124.362 360.548C123.235 363.925 122.198 367.336 121.231 370.772C117.134 385.323 113.536 400.028 110.2 414.783C110.257 405.04 110.87 395.473 112.71 385.86C112.752 385.639 112.421 385.588 112.369 385.801C109.952 395.703 108.859 406.12 109.857 416.292C108.596 421.903 107.369 427.521 106.171 433.14C103.614 445.129 100.473 457.332 98.9787 469.507C98.9402 469.823 99.3776 469.886 99.4588 469.588C101.243 463.025 102.32 456.223 103.779 449.579C105.243 442.915 106.75 436.261 108.302 429.616C110.56 419.939 112.927 410.286 115.338 400.647C116.948 397.111 120.063 393.973 122.396 391.008C124.957 387.756 127.518 384.501 130.01 381.195C134.65 375.037 138.907 368.641 142.526 361.827C142.603 361.681 142.377 361.581 142.295 361.719Z" fill="#17282F"/>
<path d="M143.404 350.596C137.764 357.836 132.643 365.851 128.614 374.1L128.792 374.212C133.77 366.412 138.665 358.549 143.633 350.741C143.717 350.609 143.499 350.475 143.404 350.596Z" fill="#17282F"/>
<path d="M32.6823 327.416C36.0536 333.221 39.9006 340.192 38.4531 347.163C37.536 351.575 34.3063 355.156 33.724 359.657C32.4183 369.593 42.3183 376.157 49.4834 380.852C67.3427 392.571 91.8375 403.017 95.085 426.948C95.2085 427.795 96.6735 427.584 96.5672 426.755L96.5318 426.596L96.6198 426.453C98.9318 414.329 98.8792 401.978 96.2844 389.905C93.6198 377.569 88.237 366.488 81.8844 355.652C71.137 337.316 59.7542 318.539 43.5006 304.491C39.0006 300.608 29.7886 293.62 26.2058 302.391C22.7292 310.915 28.5527 320.339 32.6823 327.416Z" fill="#3AA67F"/>
<path d="M49.0292 366.292C60.8703 379.111 79.6953 386.297 89.8891 400.656C83.8484 378.649 73.8531 358.859 58.486 341.669C58.0912 341.228 58.7073 340.601 59.1385 341.016C70.3896 351.828 78.7208 364.469 84.8005 378.183C82.0672 368.391 78.2427 359.129 73.75 349.923C73.5807 349.575 74.0745 349.275 74.274 349.616C79.9989 359.376 83.8027 370.332 86.1849 381.383C99.6145 413.896 100.86 452.028 98.0453 486.298C98.0047 486.785 97.2584 486.801 97.2729 486.298C98.0443 459.291 97.6073 431.813 91.1355 405.437C91 404.886 90.8505 404.344 90.7104 403.796C79.6219 388.339 60.8776 381.175 48.8251 366.496C48.7084 366.356 48.9005 366.153 49.0292 366.292Z" fill="#17282F"/>
<path d="M46.2839 355.283C52.5005 360.985 58.6197 366.819 64.8464 372.517L64.7547 372.636C57.9771 368.051 51.0953 361.991 45.9136 355.653C45.7031 355.395 46.0312 355.049 46.2839 355.283Z" fill="#17282F"/>
<path d="M45.3022 330.575C50.9474 339.623 56.8678 348.108 63.9 356.156L63.7438 356.312C56.1954 349.043 49.4896 340.248 44.9688 330.768C44.8626 330.547 45.1688 330.36 45.3022 330.575Z" fill="#17282F"/>
<path d="M73.2886 510.467H127.736L120.399 437.212H81.6746L73.2886 510.467Z" fill="#33535F"/>
<path d="M80.3079 449.119H121.598L120.403 437.212H81.6708L80.3079 449.119Z" fill="#17282F"/>
<path d="M74.9938 440.792H126.031V429.096H74.9938V440.792Z" fill="#33535F"/>
</g>
<defs>
<clipPath id="clip0">
<rect width="541.373" height="558.32" fill="white"/>
</clipPath>
</defs>
</svg>
