<svg width="23" height="22" viewBox="0 0 23 22" fill="none" xmlns="http://www.w3.org/2000/svg">
<path d="M21.2831 15.9201V18.9201C21.2843 19.1986 21.2272 19.4743 21.1156 19.7294C21.0041 19.9846 20.8404 20.2137 20.6352 20.402C20.43 20.5902 20.1877 20.7336 19.9239 20.8228C19.6601 20.912 19.3805 20.9452 19.1031 20.9201C16.026 20.5857 13.0701 19.5342 10.4731 17.8501C8.05696 16.3148 6.00847 14.2663 4.47314 11.8501C2.78311 9.2413 1.73138 6.27109 1.40314 3.1801C1.37815 2.90356 1.41101 2.62486 1.49964 2.36172C1.58826 2.09859 1.73071 1.85679 1.9179 1.65172C2.1051 1.44665 2.33294 1.28281 2.58693 1.17062C2.84091 1.05843 3.11548 1.00036 3.39314 1.0001H6.39314C6.87844 0.995321 7.34893 1.16718 7.7169 1.48363C8.08487 1.80008 8.32521 2.23954 8.39314 2.7201C8.51976 3.68016 8.75459 4.62282 9.09314 5.5301C9.22768 5.88802 9.2568 6.27701 9.17704 6.65098C9.09729 7.02494 8.912 7.36821 8.64314 7.6401L7.37314 8.9101C8.79669 11.4136 10.8696 13.4865 13.3731 14.9101L14.6431 13.6401C14.915 13.3712 15.2583 13.1859 15.6323 13.1062C16.0062 13.0264 16.3952 13.0556 16.7531 13.1901C17.6604 13.5286 18.6031 13.7635 19.5631 13.8901C20.0489 13.9586 20.4925 14.2033 20.8097 14.5776C21.1268 14.9519 21.2953 15.4297 21.2831 15.9201Z" stroke="white" stroke-width="2" stroke-linecap="round" stroke-linejoin="round"/>
</svg>
