<svg width="223" height="49" viewBox="0 0 223 49" fill="none" xmlns="http://www.w3.org/2000/svg">
<g clip-path="url(#clip0)">
<mask id="mask0" mask-type="alpha" maskUnits="userSpaceOnUse" x="11" y="7" width="30" height="31">
<path d="M25.8953 37.3023C34.1111 37.3023 40.7714 30.6515 40.7714 22.4474C40.7714 14.2433 34.1111 7.59256 25.8953 7.59256C17.6795 7.59256 11.0192 14.2433 11.0192 22.4474C11.0192 30.6515 17.6795 37.3023 25.8953 37.3023Z" fill="#C4C4C4"/>
</mask>
<g mask="url(#mask0)">
<path fill-rule="evenodd" clip-rule="evenodd" d="M60.0701 10.131C56.5839 12.7866 52.2711 13.7015 48.0922 14.8393C46.036 15.3974 44.0251 16.0221 42.1704 16.9146C41.7454 17.1156 41.3438 17.3163 40.9633 17.5396C39.8011 18.2088 38.684 19.0123 37.7006 20.0167C36.762 20.9538 36.0245 22.0029 35.4659 23.1407C34.5498 24.9261 34.0358 26.912 33.6558 28.9427C32.9852 32.6471 33.0078 36.4627 33.6783 40.1673C33.9689 41.6622 34.2367 43.2241 34.8404 44.6302C34.9744 44.9424 35.1084 45.3445 35.399 45.5452C35.779 45.8128 36.3151 45.3891 36.1142 44.9647C34.6615 41.8635 34.6615 37.9803 35.5105 34.6552C36.4716 30.8619 39.0638 28.2955 42.4385 26.4432C43.3321 25.9524 44.2705 25.5061 45.2091 25.0599C45.2314 25.0599 45.2537 25.0599 45.2537 25.0599C45.4555 25.0153 45.5895 25.3054 45.41 25.4169C44.3153 26.1312 43.2429 26.8228 42.2373 27.5814C37.276 31.1966 35.9351 38.0918 37.9689 37.7796C38.125 37.7575 38.304 37.6906 38.5275 37.5561C41.433 35.7933 45.1199 35.2132 48.4495 34.0531C49.6113 33.6515 50.7513 33.1602 51.7794 32.5355C55.8465 30.0584 58.4163 26.0193 59.6228 21.4447C60.5174 18.0528 60.4728 14.1923 60.9862 10.7114C61.0754 10.2651 60.7184 9.95256 60.3379 10.0195C60.2485 10.0195 60.1593 10.0641 60.0701 10.131Z" fill="url(#paint0_linear)"/>
<path fill-rule="evenodd" clip-rule="evenodd" d="M47.4663 37.5338C44.9412 38.2479 42.1704 38.8728 40.0916 40.1453C39.5778 40.4573 39.0192 40.6805 38.4158 40.7695C38.304 40.7918 38.17 40.7918 38.0581 40.8141C38.0804 41.0377 38.125 41.2607 38.17 41.4835H46.327C46.9521 41.4835 47.4663 40.9711 47.4663 40.3458V37.5338ZM30.6839 28.3624C31.1084 26.0862 31.7117 23.8325 32.7622 21.7572C33.4993 20.3293 34.4158 19.0123 35.5551 17.8744C36.7174 16.7139 38.0358 15.7323 39.4661 14.9067C39.913 14.6609 40.382 14.4153 40.8516 14.1923C42.907 13.2107 45.0973 12.5411 47.2879 11.9388C47.3548 11.9161 47.3994 11.8938 47.4663 11.8938V2.65542C47.4663 2.03071 46.9521 1.51721 46.327 1.51721H34.8404C34.2144 1.51721 33.7006 2.03071 33.7006 2.65542V14.6163H21.7001C21.0746 14.6163 20.5604 15.1296 20.5604 15.7546V27.2244C20.5604 27.8495 21.0746 28.3624 21.7001 28.3624H30.6839Z" fill="url(#paint1_linear)"/>
<path fill-rule="evenodd" clip-rule="evenodd" d="M60.0701 10.131C56.5839 12.7867 52.2711 13.7016 48.0922 14.8393C46.036 15.3975 44.0251 16.0222 42.1704 16.9146C41.7454 17.1156 41.3438 17.3163 40.9633 17.5396C39.8011 18.2088 38.684 19.0124 37.7006 20.0168C36.762 20.9538 36.0245 22.0029 35.4659 23.1407C34.5498 24.9261 34.0358 26.912 33.6558 28.9427C32.9852 32.6471 33.0078 36.4628 33.6783 40.1674C33.9689 41.6622 34.2367 43.2241 34.8404 44.6302C34.9744 44.9424 35.1084 45.3445 35.399 45.5452C35.779 45.8128 36.3151 45.3891 36.1142 44.9647C34.6615 41.8636 34.6615 37.9803 35.5105 34.6553C36.4716 30.8619 39.0638 28.2955 42.4385 26.4432C43.3321 25.9524 44.2705 25.5061 45.2091 25.0599C45.2314 25.0599 45.2537 25.0599 45.2537 25.0599C45.4555 25.0153 45.5895 25.3054 45.41 25.4169C44.3153 26.1312 43.2429 26.8228 42.2373 27.5815C37.276 31.1966 35.9351 38.0918 37.9689 37.7796C38.125 37.7575 38.304 37.6906 38.5275 37.5562C41.433 35.7933 45.1199 35.2132 48.4495 34.0531C49.6113 33.6515 50.7513 33.1602 51.7794 32.5356C55.8465 30.0584 58.4163 26.0193 59.6228 21.4447C60.5174 18.0528 60.4728 14.1924 60.9862 10.7114C61.0754 10.2651 60.7184 9.95259 60.3379 10.0195C60.2485 10.0195 60.1593 10.0641 60.0701 10.131Z" fill="url(#paint2_linear)"/>
<path fill-rule="evenodd" clip-rule="evenodd" d="M47.4663 37.5338C44.9412 38.2479 42.1704 38.8728 40.0916 40.1453C39.5778 40.4573 39.0192 40.6805 38.4158 40.7695C38.304 40.7918 38.17 40.7918 38.0581 40.8141C38.0804 41.0377 38.125 41.2607 38.17 41.4835H46.327C46.9521 41.4835 47.4663 40.9711 47.4663 40.3458V37.5338ZM30.6839 28.3624C31.1084 26.0862 31.7117 23.8325 32.7622 21.7572C33.4993 20.3293 34.4158 19.0123 35.5551 17.8744C36.7174 16.7139 38.0358 15.7323 39.4661 14.9067C39.913 14.6609 40.382 14.4153 40.8516 14.1923C42.907 13.2107 45.0973 12.5411 47.2879 11.9388C47.3548 11.9161 47.3994 11.8938 47.4663 11.8938V2.65542C47.4663 2.03071 46.9521 1.51721 46.327 1.51721H34.8404C34.2144 1.51721 33.7006 2.03071 33.7006 2.65542V14.6163H21.7001C21.0746 14.6163 20.5604 15.1296 20.5604 15.7546V27.2244C20.5604 27.8495 21.0746 28.3624 21.7001 28.3624H30.6839Z" fill="url(#paint3_linear)"/>
</g>
<g clip-path="url(#clip1)">
<path fill-rule="evenodd" clip-rule="evenodd" d="M60.2673 10.1137C56.8724 12.7076 52.6724 13.6013 48.6029 14.7126C46.6003 15.2577 44.642 15.8678 42.8359 16.7395C42.422 16.9358 42.0307 17.1318 41.6603 17.35C40.5286 18.0036 39.4407 18.7884 38.4829 19.7695C37.569 20.6847 36.8506 21.7093 36.3068 22.8206C35.4146 24.5646 34.9141 26.5041 34.5441 28.4875C33.891 32.1057 33.9128 35.8327 34.566 39.4512C34.8489 40.9111 35.1099 42.4366 35.6976 43.81C35.8281 44.1149 35.9586 44.5078 36.2416 44.7038C36.6116 44.9651 37.1337 44.5512 36.9381 44.1368C35.5233 41.1077 35.5233 37.315 36.3502 34.0673C37.2862 30.3622 39.8106 27.8556 43.0969 26.0464C43.9673 25.5669 44.8811 25.1312 45.7951 24.6953C45.8169 24.6953 45.8385 24.6953 45.8385 24.6953C46.035 24.6516 46.1655 24.9352 45.9907 25.0439C44.9246 25.7416 43.8802 26.417 42.9011 27.1582C38.0695 30.6892 36.7637 37.4239 38.7442 37.119C38.8963 37.0972 39.0707 37.0319 39.2882 36.9006C42.1177 35.1788 45.7081 34.6122 48.9508 33.4791C50.082 33.0867 51.1924 32.6069 52.1934 31.9968C56.1543 29.5774 58.6569 25.6322 59.8317 21.1642C60.703 17.8513 60.6594 14.0806 61.1594 10.6806C61.2464 10.2447 60.8985 9.93947 60.5281 10.0048C60.4412 10.0048 60.3542 10.0484 60.2673 10.1137Z" fill="url(#paint4_linear)"/>
<path fill-rule="evenodd" clip-rule="evenodd" d="M47.9932 36.8788C45.5342 37.5762 42.8359 38.1867 40.8116 39.4295C40.3111 39.7343 39.7671 39.9523 39.1795 40.0393C39.0707 40.061 38.9402 40.061 38.8311 40.0828C38.853 40.3012 38.8963 40.5191 38.9402 40.7367H46.8837C47.4924 40.7367 47.9932 40.236 47.9932 39.6254V36.8788ZM31.6498 27.921C32.0632 25.6976 32.6507 23.4964 33.6737 21.4694C34.3915 20.0747 35.2841 18.7885 36.3937 17.677C37.5254 16.5435 38.8095 15.5846 40.2024 14.7784C40.6376 14.5383 41.0943 14.2984 41.5516 14.0806C43.5533 13.1217 45.6864 12.4678 47.8194 11.8796C47.8846 11.8573 47.928 11.8355 47.9932 11.8355V2.8122C47.9932 2.20202 47.4924 1.70047 46.8837 1.70047H35.6976C35.0881 1.70047 34.5876 2.20202 34.5876 2.8122V14.4947H22.901C22.2919 14.4947 21.7911 14.996 21.7911 15.6065V26.8093C21.7911 27.4198 22.2919 27.921 22.901 27.921H31.6498Z" fill="url(#paint5_linear)"/>
</g>
</g>
<path d="M11.7304 33.0843H13.5993L14.2458 32.4388C11.942 29.7745 10.5551 26.3119 10.5551 22.521C10.5551 14.0936 17.3958 7.26254 25.8351 7.26254C34.2743 7.26254 41.1153 14.0936 41.1153 22.521C41.1153 30.9482 34.2743 37.7793 25.8351 37.7793C22.0387 37.7793 18.5712 36.3942 15.9031 34.1055L15.2566 34.7512V36.6054L3.50271 48.3192L0 44.8214L11.7304 33.0843ZM25.8351 33.0843C31.6767 33.0843 36.4137 28.3542 36.4137 22.521C36.4137 16.6876 31.6767 11.9575 25.8351 11.9575C19.9934 11.9575 15.2566 16.6876 15.2566 22.521C15.2566 28.3542 19.9934 33.0843 25.8351 33.0843Z" fill="url(#paint6_linear)"/>
<path d="M86.248 16.904C87.912 16.904 89.176 17.328 90.04 18.176C90.92 19.008 91.36 20.136 91.36 21.56C91.36 22.984 90.92 24.112 90.04 24.944C89.176 25.76 87.912 26.168 86.248 26.168H83.272V32H81.376V16.904H86.248ZM86.248 24.536C87.288 24.536 88.072 24.272 88.6 23.744C89.144 23.216 89.416 22.496 89.416 21.584C89.416 20.656 89.144 19.92 88.6 19.376C88.072 18.816 87.288 18.536 86.248 18.536H83.272V24.536H86.248ZM96.6091 16.904V23.552H104.025V16.904H105.921V32H104.025V25.184H96.6091V32H94.7131V16.904H96.6091ZM114.152 16.904H116.456L121.52 32H119.552L118.256 28.16H112.256L110.96 32H108.968L114.152 16.904ZM112.76 26.672H117.776L115.28 19.232L112.76 26.672ZM135.084 21.224C135.084 22.472 134.748 23.48 134.076 24.248C133.42 25.016 132.444 25.512 131.148 25.736L135.468 32H133.02L129.108 25.832H126.468V32H124.572V16.904H129.828C131.524 16.904 132.82 17.312 133.716 18.128C134.628 18.944 135.084 19.976 135.084 21.224ZM129.684 24.512C130.82 24.512 131.676 24.24 132.252 23.696C132.844 23.136 133.14 22.408 133.14 21.512C133.14 20.6 132.852 19.88 132.276 19.352C131.716 18.808 130.9 18.536 129.828 18.536H126.468V24.512H129.684ZM142.003 16.904L147.091 27.128L152.131 16.904H154.795V32H152.899V19.592L147.715 30.104H146.443L141.187 19.424V32H139.291V16.904H142.003ZM163.019 16.904H165.323L170.387 32H168.419L167.123 28.16H161.123L159.827 32H157.835L163.019 16.904ZM161.627 26.672H166.643L164.147 19.232L161.627 26.672ZM173.44 16.904H182.608V18.536H175.336V23.552H182.104V25.184H175.336V32H173.44V16.904ZM186.026 16.904H187.922V32H186.026V16.904ZM194.96 16.904L202.448 29.024V16.904H204.344V32H202.232L194.624 19.712V32H192.704V16.904H194.96ZM213.598 16.904C215.87 16.904 217.686 17.592 219.046 18.968C220.422 20.328 221.11 22.16 221.11 24.464C221.11 26.752 220.422 28.584 219.046 29.96C217.686 31.32 215.87 32 213.598 32H209.158V16.904H213.598ZM211.054 30.344H213.598C215.278 30.344 216.614 29.792 217.606 28.688C218.598 27.568 219.094 26.152 219.094 24.44C219.094 22.728 218.59 21.328 217.582 20.24C216.59 19.136 215.262 18.584 213.598 18.584H211.054V30.344Z" fill="#464855"/>
<defs>
<linearGradient id="paint0_linear" x1="33.1641" y1="27.8195" x2="61" y2="27.8195" gradientUnits="userSpaceOnUse">
<stop stop-color="#63C77E"/>
<stop offset="0.5" stop-color="#2EA947"/>
<stop offset="1" stop-color="#299447"/>
</linearGradient>
<linearGradient id="paint1_linear" x1="26.5761" y1="3.54377" x2="49.255" y2="38.3935" gradientUnits="userSpaceOnUse">
<stop stop-color="#5DCAF4"/>
<stop offset="0.5" stop-color="#52B0E6"/>
<stop offset="1" stop-color="#4594D7"/>
</linearGradient>
<linearGradient id="paint2_linear" x1="33.1641" y1="27.8196" x2="61" y2="27.8196" gradientUnits="userSpaceOnUse">
<stop stop-color="#63C77E"/>
<stop offset="0.5" stop-color="#2EA947"/>
<stop offset="1" stop-color="#299447"/>
</linearGradient>
<linearGradient id="paint3_linear" x1="26.5761" y1="3.54377" x2="49.255" y2="38.3935" gradientUnits="userSpaceOnUse">
<stop stop-color="#5DCAF4"/>
<stop offset="0.5" stop-color="#52B0E6"/>
<stop offset="1" stop-color="#4594D7"/>
</linearGradient>
<linearGradient id="paint4_linear" x1="34.0652" y1="27.3907" x2="61.173" y2="27.3907" gradientUnits="userSpaceOnUse">
<stop stop-color="#63C77E"/>
<stop offset="0.5" stop-color="#2EA947"/>
<stop offset="1" stop-color="#299447"/>
</linearGradient>
<linearGradient id="paint5_linear" x1="27.6494" y1="3.67988" x2="49.8269" y2="37.6586" gradientUnits="userSpaceOnUse">
<stop stop-color="#5DCAF4"/>
<stop offset="0.5" stop-color="#52B0E6"/>
<stop offset="1" stop-color="#4594D7"/>
</linearGradient>
<linearGradient id="paint6_linear" x1="13.7741" y1="7.26254" x2="6.3018" y2="53.261" gradientUnits="userSpaceOnUse">
<stop stop-color="#299647"/>
<stop offset="1" stop-color="#464855"/>
</linearGradient>
<clipPath id="clip0">
<rect width="61" height="48.319" fill="white"/>
</clipPath>
<clipPath id="clip1">
<rect width="40.8853" height="44.6021" fill="white" transform="translate(20.3333 0.218597)"/>
</clipPath>
</defs>
</svg>
