<svg width="21" height="17" viewBox="0 0 21 17" fill="none" xmlns="http://www.w3.org/2000/svg">
<path d="M17.395 0.928223H3.39502C2.59937 0.928223 1.83631 1.24429 1.2737 1.8069C0.71109 2.36951 0.39502 3.13257 0.39502 3.92822V13.9282C0.39502 14.7239 0.71109 15.4869 1.2737 16.0495C1.83631 16.6122 2.59937 16.9282 3.39502 16.9282H17.395C18.1907 16.9282 18.9537 16.6122 19.5163 16.0495C20.0789 15.4869 20.395 14.7239 20.395 13.9282V3.92822C20.395 3.13257 20.0789 2.36951 19.5163 1.8069C18.9537 1.24429 18.1907 0.928223 17.395 0.928223ZM3.39502 2.92822H17.395C17.6602 2.92822 17.9146 3.03358 18.1021 3.22112C18.2897 3.40865 18.395 3.66301 18.395 3.92822L10.395 8.80822L2.39502 3.92822C2.39502 3.66301 2.50038 3.40865 2.68791 3.22112C2.87545 3.03358 3.1298 2.92822 3.39502 2.92822ZM18.395 13.9282C18.395 14.1934 18.2897 14.4478 18.1021 14.6353C17.9146 14.8229 17.6602 14.9282 17.395 14.9282H3.39502C3.1298 14.9282 2.87545 14.8229 2.68791 14.6353C2.50038 14.4478 2.39502 14.1934 2.39502 13.9282V6.20822L9.87502 10.7782C10.027 10.866 10.1995 10.9122 10.375 10.9122C10.5506 10.9122 10.723 10.866 10.875 10.7782L18.395 6.20822V13.9282Z" fill="white"/>
</svg>
