<svg width="24" height="24" viewBox="0 0 24 24" fill="none" xmlns="http://www.w3.org/2000/svg">
<path d="M20.9189 10.6529C20.6044 10.483 17.9081 8.9185 16.8964 8.32964L16.8935 8.32764L4.6386 1.2525C4.42982 1.12506 4.19572 1.04477 3.95266 1.01725C3.70961 0.989733 3.46348 1.01566 3.23149 1.0932C3.20531 1.1026 3.18071 1.11206 3.15526 1.12371C3.09617 1.14297 3.03841 1.1661 2.98235 1.19293C2.74804 1.33299 2.55581 1.53361 2.42589 1.77369C2.29597 2.01377 2.23316 2.28443 2.24407 2.55719V21.5425C2.23664 21.7967 2.29682 22.0482 2.41847 22.2714C2.54012 22.4946 2.71888 22.6816 2.93645 22.813C2.98664 22.8376 3.03834 22.8589 3.09124 22.8768C3.12017 22.8901 3.14775 22.9018 3.1776 22.9123C3.32081 22.9642 3.47164 22.9921 3.62395 22.9947C3.91645 22.9915 4.203 22.9117 4.45501 22.7632C4.84368 22.5377 16.8935 15.5806 16.8935 15.5806L20.914 13.2593C21.1626 13.1348 21.3724 12.9447 21.5207 12.7096C21.6691 12.4745 21.7504 12.2033 21.7558 11.9253C21.7436 11.6576 21.6594 11.3981 21.5121 11.1742C21.3648 10.9502 21.1599 10.7702 20.9189 10.6529ZM4.24407 19.8389V4.10174L12.1842 11.9608L4.24407 19.8389ZM9.26207 17.6772L13.6056 13.3676L14.7551 14.5055C13.4905 15.2357 11.3538 16.4695 9.26207 17.6772V17.6772ZM13.6039 10.5522L9.206 6.19921L14.7597 9.40551L13.6039 10.5522ZM16.5507 13.4689L15.0253 11.9591L16.553 10.4433C17.2733 10.8616 18.3958 11.5126 19.1689 11.9576L16.5507 13.4689Z" fill="white"/>
</svg>
